<?xml version="1.0" encoding="UTF-8"?>
<svg width="18px" height="18px" viewBox="0 0 18 18" version="1.1" xmlns="http://www.w3.org/2000/svg" xmlns:xlink="http://www.w3.org/1999/xlink">
    <title>icon/Progress bar step - complete</title>
    <g id="部落" stroke="none" stroke-width="1" fill="none" fill-rule="evenodd">
        <g transform="translate(-1055.000000, -1031.000000)" id="Icon/Progress-bar-step---complete">
            <g transform="translate(1055.000000, 1031.000000)">
                <circle id="Background" fill="#FFFFFF" fill-rule="nonzero" cx="9" cy="9" r="9"></circle>
                <path d="M8.9625,0 C4.0335,0 0,4.05 0,9 C0,11.4 0.89625,13.65 2.61375,15.375 C4.332,17.1 6.498,18 8.9625,18 C8.9625,18 8.9625,18 9.0375,18 C13.9665,18 18,13.95 18,9 C17.925,4.05 13.9665,0 8.9625,0 Z M14.56425,14.625 C13.07025,16.125 11.1285,16.95 8.9625,16.95 C6.8715,16.95 4.85475,16.125 3.36075,14.625 C1.8675,13.125 1.0455,11.1 1.0455,9 C1.0455,4.575 4.6305,1.05 8.9625,1.05 C11.05425,1.05 13.07025,1.875 14.56425,3.375 C16.05825,4.875 16.8795,6.9 16.8795,9 C16.8795,11.1 16.05825,13.125 14.56425,14.625 Z" id="Union_26" fill="#222222" fill-rule="evenodd"></path>
                <path d="M12.2775,6.1125 L7.395,10.995 L5.75175,9.3525 C5.6445,9.2325 5.481,9.1875 5.32725,9.225 C5.17275,9.2625 5.05275,9.3825 5.013,9.5325 C4.974,9.69 5.02275,9.855 5.13975,9.96 L7.08525,11.9175 C7.254,12.0825 7.52775,12.0825 7.69725,11.9175 L12.88575,6.7275 C13.04325,6.555 13.03725,6.2925 12.873,6.1275 C12.70875,5.9625 12.44475,5.955 12.27375,6.1125 L12.2775,6.1125 Z" id="Path_7" fill="#222222" fill-rule="evenodd"></path>
            </g>
        </g>
    </g>
</svg>